<?xml version="1.0" standalone="no"?>
<!DOCTYPE svg PUBLIC "-//W3C//DTD SVG 20010904//EN"
 "http://www.w3.org/TR/2001/REC-SVG-20010904/DTD/svg10.dtd">
<svg version="1.0" xmlns="http://www.w3.org/2000/svg"
 width="1148.000000pt" height="1280.000000pt" viewBox="0 0 1148.000000 1280.000000"
 preserveAspectRatio="xMidYMid meet">
<metadata>
Created by potrace 1.15, written by Peter Selinger 2001-2017
</metadata>
<g transform="translate(0.000000,1280.000000) scale(0.100000,-0.100000)"
fill="#03a9f4" stroke="none">
<path d="M555 12786 c-42 -19 -71 -54 -85 -101 -8 -29 -10 -292 -8 -965 3
-1030 -1 -964 71 -1009 l34 -21 2142 0 c1177 0 2141 -3 2141 -7 0 -5 -976
-1173 -2170 -2597 -1193 -1423 -2177 -2600 -2186 -2615 -41 -61 -12 -166 56
-206 34 -19 55 -20 805 -26 424 -4 940 -7 1148 -8 l377 -1 0 -1897 c0 -1787 1
-1900 18 -1933 9 -19 32 -45 51 -57 l34 -23 2762 0 2762 0 34 23 c19 12 42 38
51 57 16 33 17 167 18 1933 l0 1897 1155 0 c1247 0 1181 -3 1232 52 45 48 45
145 0 196 -8 9 -1008 1185 -2222 2612 l-2207 2595 2184 3 2184 2 42 35 c33 29
43 45 52 88 7 36 10 333 8 962 -3 889 -3 911 -23 944 -11 19 -33 43 -48 55
l-28 21 -5177 2 c-4299 2 -5182 0 -5207 -11z"/>
</g>
</svg>
